<?xml version="1.0" standalone="no"?>
<!DOCTYPE svg PUBLIC "-//W3C//DTD SVG 20010904//EN"
 "http://www.w3.org/TR/2001/REC-SVG-20010904/DTD/svg10.dtd">
<svg version="1.0" xmlns="http://www.w3.org/2000/svg"
 width="512.000000pt" height="512.000000pt" viewBox="0 0 512.000000 512.000000"
 preserveAspectRatio="xMidYMid meet">

<g transform="translate(0.000000,512.000000) scale(0.100000,-0.100000)"
fill="#000000" stroke="none">
<path d="M1910 5102 c-120 -60 -100 -249 30 -277 l30 -7 0 -351 0 -350 -504
-907 c-277 -498 -511 -927 -520 -953 -44 -130 -41 -256 8 -392 l24 -65 -140 0
c-268 0 -430 -59 -591 -217 -342 -335 -287 -896 113 -1158 135 -88 225 -114
418 -122 l142 -6 0 -91 c0 -70 4 -100 19 -126 21 -41 83 -80 126 -80 16 0 125
32 242 71 l212 70 214 -70 c118 -39 227 -71 242 -71 41 0 100 38 124 80 17 31
21 55 21 129 l0 91 1441 0 1441 0 38 21 c44 25 80 83 80 128 0 51 -35 108 -80
131 -31 16 -59 20 -130 20 l-90 0 0 450 0 450 90 0 c69 0 100 4 128 19 43 22
82 84 82 130 0 51 -35 108 -80 131 -37 19 -58 20 -461 20 -397 0 -421 1 -414
17 51 121 49 114 49 253 0 116 -3 143 -22 190 -12 30 -249 461 -527 958 l-505
904 0 348 0 348 34 6 c134 25 159 217 36 278 -32 17 -85 18 -660 18 -575 0
-628 -1 -660 -18z m952 -675 l3 -393 89 -159 c49 -88 102 -184 118 -212 l30
-53 -535 0 -535 0 116 208 117 207 3 398 3 397 294 0 294 0 3 -393z m685
-1612 c391 -697 373 -662 373 -743 0 -121 -74 -225 -184 -257 -75 -22 -2257
-22 -2332 0 -143 42 -227 215 -170 350 9 22 155 289 324 593 l307 552 704 -2
704 -3 274 -490z m973 -1765 l0 -450 -1200 0 -1200 0 0 240 c0 222 -2 244 -20
280 -13 26 -34 47 -60 60 -38 19 -58 20 -520 20 -462 0 -482 -1 -520 -20 -26
-13 -47 -34 -60 -60 -18 -36 -20 -58 -20 -280 l0 -240 -95 0 c-120 0 -183 14
-268 57 -209 110 -294 371 -190 591 33 71 130 170 198 202 107 50 25 48 2053
49 l1902 1 0 -450z m-2700 -420 c0 -148 -1 -270 -3 -270 -2 0 -63 20 -137 45
-74 25 -146 45 -160 45 -14 0 -86 -20 -160 -45 -74 -25 -135 -45 -137 -45 -2
0 -3 122 -3 270 l0 270 300 0 300 0 0 -270z"/>
<path d="M2198 2979 c-43 -22 -78 -81 -78 -129 0 -74 76 -150 149 -150 77 0
151 74 151 150 0 50 -35 107 -80 130 -49 25 -94 25 -142 -1z"/>
<path d="M2798 2679 c-43 -22 -78 -81 -78 -129 0 -74 76 -150 149 -150 77 0
151 74 151 150 0 50 -35 107 -80 130 -49 25 -94 25 -142 -1z"/>
</g>
</svg>
